<?xml version="1.0" standalone="no"?><!DOCTYPE svg PUBLIC "-//W3C//DTD SVG 1.1//EN" "http://www.w3.org/Graphics/SVG/1.1/DTD/svg11.dtd"><svg class="icon" width="200px" height="200.00px" viewBox="0 0 1024 1024" version="1.1" xmlns="http://www.w3.org/2000/svg"><path d="M574.5 927.4a32.2 32.1 0 1 0 64.4 0 32.2 32.1 0 1 0-64.4 0Z" fill="#1296db" /><path d="M800 63.9H226c-70.4 0-128 57.6-128 128v639.7c0 70.4 57.6 128 128 128h251.7v-0.1c17.8 0 32.2-14.4 32.2-32.1 0-17.7-14.4-32.1-32.2-32.1H223.8c-35.2 0-64.1-28.7-64.1-63.8l-0.2-105.6 131.4-131.4c6.2-6.2 16.4-6.2 22.6 0l112.1 112.1 0.1-0.1c5.9 7.1 14.8 11.6 24.8 11.6 8.9 0 16.9-3.6 22.7-9.3l0.1 0.1 185.8-185.8c6.2-6.2 16.4-6.2 22.6 0L863.6 705c0.3 0.3 0.6 0.7 0.9 1v-71.1l0.4 196.6c0.1 35.1-28.7 63.8-63.9 63.8H735.6c-17.8 0-32.2 14.4-32.2 32.1 0 17.7 14.4 32.1 32.2 32.1h0.1v0.1H800c70.4 0 128-57.6 128-128V191.9c0-70.4-57.6-128-128-128zM706 456c-19.8-19.8-52.3-19.8-72.1 0L451.4 638.5 339.8 526.9c-19.8-19.8-52.3-19.8-72.1 0L159.3 635.2l-0.9-442.6c-0.1-35.1 28.7-63.8 63.9-63.8h577.2c35.2 0 64.1 28.7 64.1 63.8l0.9 421.9L706 456z" fill="#1296db" /><path d="M391.5 232.2c-52.7 0-95.3 42.7-95.3 95.3 0 52.7 42.7 95.3 95.3 95.3 52.7 0 95.3-42.7 95.3-95.3 0.1-52.6-42.6-95.3-95.3-95.3z m0 127.9c-18 0-32.6-14.6-32.6-32.6s14.6-32.6 32.6-32.6 32.6 14.6 32.6 32.6-14.6 32.6-32.6 32.6z" fill="#1296db" /></svg>