<?xml version="1.0" standalone="no"?><!DOCTYPE svg PUBLIC "-//W3C//DTD SVG 1.1//EN" "http://www.w3.org/Graphics/SVG/1.1/DTD/svg11.dtd"><svg class="icon" width="200px" height="200.00px" viewBox="0 0 1024 1024" version="1.1" xmlns="http://www.w3.org/2000/svg"><path d="M512 819.2c-118.784 0-235.52-55.296-346.112-147.456-38.912-32.768-71.68-65.536-102.4-100.352-10.24-12.288-20.48-22.528-28.672-32.768-4.096-6.144-8.192-10.24-10.24-12.288l-8.192-12.288 8.192-12.288c2.048-2.048 6.144-6.144 10.24-12.288 8.192-10.24 18.432-20.48 28.672-32.768 30.72-34.816 65.536-67.584 102.4-100.352 110.592-92.16 227.328-147.456 346.112-147.456s235.52 55.296 346.112 147.456c38.912 32.768 71.68 65.536 102.4 100.352 10.24 12.288 20.48 22.528 28.672 32.768 4.096 6.144 8.192 10.24 10.24 12.288l8.192 12.288-8.192 12.288c-2.048 2.048-6.144 6.144-10.24 12.288-8.192 10.24-18.432 20.48-28.672 32.768-30.72 34.816-65.536 67.584-102.4 100.352-110.592 92.16-227.328 147.456-346.112 147.456z m-417.792-276.48c28.672 32.768 61.44 65.536 98.304 96.256 102.4 86.016 210.944 139.264 319.488 139.264s217.088-51.2 319.488-139.264c36.864-30.72 69.632-63.488 98.304-96.256 10.24-12.288 18.432-22.528 26.624-30.72-8.192-10.24-16.384-20.48-26.624-30.72-28.672-32.768-61.44-65.536-98.304-96.256-102.4-86.016-210.944-139.264-319.488-139.264s-217.088 51.2-319.488 139.264c-36.864 30.72-69.632 63.488-98.304 96.256-10.24 12.288-18.432 22.528-26.624 30.72 6.144 10.24 16.384 20.48 26.624 30.72z m417.792 174.08c-112.64 0-204.8-92.16-204.8-204.8s92.16-204.8 204.8-204.8 204.8 92.16 204.8 204.8-92.16 204.8-204.8 204.8z m0-40.96c90.112 0 163.84-73.728 163.84-163.84s-73.728-163.84-163.84-163.84-163.84 73.728-163.84 163.84 73.728 163.84 163.84 163.84z" fill="#f4ea2a" /></svg>