<?xml version="1.0" standalone="no"?><!DOCTYPE svg PUBLIC "-//W3C//DTD SVG 1.1//EN" "http://www.w3.org/Graphics/SVG/1.1/DTD/svg11.dtd"><svg class="icon" width="200px" height="200.00px" viewBox="0 0 1024 1024" version="1.1" xmlns="http://www.w3.org/2000/svg"><path d="M1008.921299 1024 978.804857 1024C970.492719 1024 963.746636 1017.253917 963.746636 1008.941778L963.746636 617.428028C963.746636 609.115889 970.492719 602.369806 978.804857 602.369806L1008.921299 602.369806C1017.233438 602.369806 1023.979521 609.115889 1023.979521 617.428028L1023.979521 1008.941778C1023.979521 1017.253917 1017.233438 1024 1008.921299 1024ZM1008.921299 542.106805 15.078701 542.106805C6.766562 542.106805 0.020479 535.390838 0.020479 527.078701L0.020479 496.932142C0.020479 488.620003 6.766562 481.87392 15.078701 481.87392L1008.921299 481.87392C1017.233438 481.87392 1023.979521 488.620003 1023.979521 496.932142L1023.979521 527.078701C1023.979521 535.390838 1017.233438 542.106805 1008.921299 542.106805ZM963.746636 421.641035 662.582212 421.641035C629.303543 421.641035 602.349327 394.68682 602.349327 361.408151L602.349327 60.243726C602.349327 26.995174 629.303543 0.010842 662.582212 0.010842L963.746636 0.010842C996.995188 0.010842 1023.979521 26.995174 1023.979521 60.243726L1023.979521 361.408151C1023.979521 394.68682 996.995188 421.641035 963.746636 421.641035ZM963.746636 60.243726 662.582212 60.243726 662.582212 361.408151 963.746636 361.408151 963.746636 60.243726ZM527.058222 421.641035 496.941778 421.641035C488.629641 421.641035 481.883558 414.894952 481.883558 406.582815L481.883558 15.069063C481.883558 6.756925 488.629641 0.010842 496.941778 0.010842L527.058222 0.010842C535.370359 0.010842 542.116442 6.756925 542.116442 15.069063L542.116442 406.582815C542.116442 414.894952 535.370359 421.641035 527.058222 421.641035ZM361.417788 421.641035 60.253364 421.641035C26.974695 421.641035 0.020479 394.68682 0.020479 361.408151L0.020479 60.243726C0.020479 26.995174 26.974695 0.010842 60.253364 0.010842L361.417788 0.010842C394.66634 0.010842 421.650673 26.995174 421.650673 60.243726L421.650673 361.408151C421.650673 394.68682 394.66634 421.641035 361.417788 421.641035ZM361.417788 60.243726 60.253364 60.243726 60.253364 361.408151 361.417788 361.408151 361.417788 60.243726ZM60.253364 602.369806 361.417788 602.369806C394.66634 602.369806 421.650673 629.324022 421.650673 662.602691L421.650673 963.767115C421.650673 997.015667 394.66634 1024 361.417788 1024L60.253364 1024C26.974695 1024 0.020479 997.015667 0.020479 963.767115L0.020479 662.602691C0.020479 629.324022 26.974695 602.369806 60.253364 602.369806ZM60.253364 963.736999 361.417788 963.736999 361.417788 662.572575 60.253364 662.572575 60.253364 963.736999ZM496.941778 602.369806 527.058222 602.369806C535.370359 602.369806 542.116442 609.115889 542.116442 617.428028L542.116442 918.562336C542.116442 926.90459 535.370359 933.620556 527.058222 933.620556L496.941778 933.620556C488.629641 933.620556 481.883558 926.90459 481.883558 918.562336L481.883558 617.428028C481.883558 609.115889 488.629641 602.369806 496.941778 602.369806ZM677.640433 722.835576 707.756876 722.835576C716.069013 722.835576 722.815096 729.581659 722.815096 737.893797L722.815096 1008.941778C722.815096 1017.253917 716.069013 1024 707.756876 1024L677.640433 1024C669.328295 1024 662.582212 1017.253917 662.582212 1008.941778L662.582212 737.893797C662.582212 729.581659 669.328295 722.835576 677.640433 722.835576ZM828.222645 662.572575 858.339087 662.572575C866.651226 662.572575 873.397309 669.318658 873.397309 677.630796L873.397309 1008.941778C873.397309 1017.253917 866.651226 1024 858.339087 1024L828.222645 1024C819.910508 1024 813.164424 1017.253917 813.164424 1008.941778L813.164424 677.630796C813.164424 669.318658 819.910508 662.572575 828.222645 662.572575Z" fill="#d81e06" /></svg>