<?xml version="1.0" standalone="no"?><!DOCTYPE svg PUBLIC "-//W3C//DTD SVG 1.1//EN" "http://www.w3.org/Graphics/SVG/1.1/DTD/svg11.dtd"><svg class="icon" width="200px" height="200.00px" viewBox="0 0 1024 1024" version="1.1" xmlns="http://www.w3.org/2000/svg"><path d="M801.0752 318.89408c-10.89536-88.24832-73.3184-130.12992-135.12704-134.7584-28.09856-2.10944-51.28192 7.22944-68.1984 28.59008-7.18848 9.09312-14.41792 26.74688-23.42912 54.23104-2.62144 7.9872-5.3248 16.65024-8.13056 25.92768-5.05856 16.7936-10.11712 34.75456-14.9504 52.71552-1.69984 6.26688-3.23584 12.10368-4.58752 17.34656-0.8192 3.15392-1.39264 5.4272-1.72032 6.656l-2.9696 11.69408 8.2944 8.6016 49.02912 50.83136c-31.51872 63.30368-85.93408 120.6272-141.98784 144.77312l-41.71776-42.3936-7.68-7.80288-10.69056 1.90464c-1.24928 0.22528-3.54304 0.63488-6.7584 1.2288-5.3248 0.98304-11.24352 2.08896-17.63328 3.29728-18.24768 3.50208-36.49536 7.18848-53.57568 10.89536-12.26752 2.68288-23.51104 5.28384-33.44384 7.7824-20.0704 5.03808-34.4064 9.48224-43.08992 13.78304-31.80544 15.72864-44.31872 49.33632-39.44448 91.38176 7.00416 60.3136 70.36928 129.1264 148.52096 129.9456 87.3472 0.9216 209.94048-64.24576 296.63232-157.32736C752.76288 526.1312 812.76928 413.63456 801.0752 318.89408L801.0752 318.89408zM618.00448 608.82944" /></svg>