<?xml version="1.0" standalone="no"?><!DOCTYPE svg PUBLIC "-//W3C//DTD SVG 1.1//EN" "http://www.w3.org/Graphics/SVG/1.1/DTD/svg11.dtd"><svg class="icon" width="200px" height="200.00px" viewBox="0 0 1024 1024" version="1.1" xmlns="http://www.w3.org/2000/svg"><path d="M702.464 884.928H198.976a61.12 61.12 0 0 1-61.056-60.992V200a61.184 61.184 0 0 1 61.056-61.056v0.064h503.488a61.12 61.12 0 0 1 60.928 61.056v402.688l56.128 56.256V204.928a122.048 122.048 0 0 0-121.856-121.984H203.84a122.112 122.112 0 0 0-121.984 121.984V819.2a122.112 122.112 0 0 0 121.984 121.856H697.6c38.656 0 72.96-18.496 95.168-46.72l-39.168-39.232a60.416 60.416 0 0 1-51.136 29.824z"  /><path d="M593.024 643.008s-38.464-100.096-29.248-109.312c9.216-9.28 109.12 29.312 109.12 29.312l-79.872 80zM911.552 800.704l-81.088 81.344-232.512-232.896 81.152-81.216zM854.976 906.816a7.04 7.04 0 0 0 9.856 0l70.72-70.72a6.784 6.784 0 0 0 0-9.856l-20.736-20.864-80.768 80.64 20.928 20.8zM672.896 276.352a24.96 24.96 0 0 1-25.024 25.024H250.368a24.96 24.96 0 1 1 0-50.048h397.504a24.96 24.96 0 0 1 25.024 25.024zM585.6 424a24.96 24.96 0 0 1-25.024 25.024H250.368a24.96 24.96 0 1 1 0-50.048H560.64c13.824 0.064 24.96 11.264 24.96 25.024z"  /></svg>